# xmcd
#
# Track frame offsets: 
#        183
#        15308
#        29670
#        42820
#        56033
#        70845
#        85958
#        101858
#        116933
#        128708
#        146470
#        158608
#        171183
#        191495
#
# Disc length: 2755 seconds
#
# Revision: 0
# Processed by: cddbd v1.5.2PL0 Copyright (c) Steve Scherf et al.
# Submitted via: ExactAudioCopy v1.0b3
#
DISCID=be0ac10e
DTITLE=Kenny Rogers - The best of the Best
DYEAR=1900
DGENRE=Country
TTITLE0=For the good times
TTITLE1=Sunshine
TTITLE2=Ruby, don't take your love to town
TTITLE3=Shine Ruby mountain
TTITLE4=Heed the Call
TTITLE5=All God's lonely Children
TTITLE6=Tulsa turn around
TTITLE7=Just dropped in
TTITLE8=Me and Bobby McGee
TTITLE9=Something burning
TTITLE10=Elvira
TTITLE11=Rueben James
TTITLE12=Lay it down
TTITLE13=Tell all brother
EXTD=
EXTT0=
EXTT1=
EXTT2=
EXTT3=
EXTT4=
EXTT5=
EXTT6=
EXTT7=
EXTT8=
EXTT9=
EXTT10=
EXTT11=
EXTT12=
EXTT13=
PLAYORDER=
